<svg xmlns="http://www.w3.org/2000/svg" width="960" height="640" viewBox="0 0 960 640" role="img" aria-label="InteractiveCards component preview">
  <defs>
    <linearGradient id="bg" x1="0" y1="0" x2="1" y2="1">
      <stop offset="0" stop-color="#fff7ed"/>
      <stop offset="1" stop-color="#e0f2fe"/>
    </linearGradient>
    <linearGradient id="cardA" x1="0" y1="0" x2="1" y2="1">
      <stop offset="0" stop-color="#f97316"/>
      <stop offset="1" stop-color="#7c3aed"/>
    </linearGradient>
    <linearGradient id="cardB" x1="0" y1="0" x2="1" y2="1">
      <stop offset="0" stop-color="#2563eb"/>
      <stop offset="1" stop-color="#14b8a6"/>
    </linearGradient>
    <filter id="shadow" x="-20%" y="-20%" width="140%" height="140%">
      <feDropShadow dx="0" dy="22" stdDeviation="18" flood-color="#0f172a" flood-opacity="0.18"/>
    </filter>
  </defs>
  <rect width="960" height="640" fill="url(#bg)"/>
  <rect x="72" y="72" width="816" height="496" rx="28" fill="#fffaf4" stroke="#f1d8bd"/>
  <text x="480" y="148" text-anchor="middle" font-family="Georgia, serif" font-size="58" font-weight="700" fill="#1f2937">curated motion</text>
  <text x="480" y="192" text-anchor="middle" font-family="Inter, Arial, sans-serif" font-size="22" fill="#64748b">fan to conveyor to detail view</text>
  <g filter="url(#shadow)" transform="translate(480 350)">
    <g transform="translate(-260 40) rotate(-16)">
      <rect x="-76" y="-120" width="152" height="210" rx="14" fill="#fff" stroke="#e5e7eb"/>
      <rect x="-58" y="-100" width="116" height="150" rx="10" fill="url(#cardA)"/>
      <rect x="-42" y="68" width="84" height="10" rx="5" fill="#cbd5e1"/>
    </g>
    <g transform="translate(-130 4) rotate(-9)">
      <rect x="-76" y="-120" width="152" height="210" rx="14" fill="#fff" stroke="#e5e7eb"/>
      <rect x="-58" y="-100" width="116" height="150" rx="10" fill="url(#cardB)"/>
      <rect x="-42" y="68" width="84" height="10" rx="5" fill="#cbd5e1"/>
    </g>
    <g transform="translate(0 -12)">
      <rect x="-76" y="-120" width="152" height="210" rx="14" fill="#fff" stroke="#e5e7eb"/>
      <rect x="-58" y="-100" width="116" height="150" rx="10" fill="#f8d56b"/>
      <rect x="-42" y="68" width="84" height="10" rx="5" fill="#cbd5e1"/>
    </g>
    <g transform="translate(130 4) rotate(9)">
      <rect x="-76" y="-120" width="152" height="210" rx="14" fill="#fff" stroke="#e5e7eb"/>
      <rect x="-58" y="-100" width="116" height="150" rx="10" fill="#86efac"/>
      <rect x="-42" y="68" width="84" height="10" rx="5" fill="#cbd5e1"/>
    </g>
    <g transform="translate(260 40) rotate(16)">
      <rect x="-76" y="-120" width="152" height="210" rx="14" fill="#fff" stroke="#e5e7eb"/>
      <rect x="-58" y="-100" width="116" height="150" rx="10" fill="#f0abfc"/>
      <rect x="-42" y="68" width="84" height="10" rx="5" fill="#cbd5e1"/>
    </g>
  </g>
  <path d="M230 520 C380 450 600 580 760 468" fill="none" stroke="#2563eb" stroke-width="8" stroke-linecap="round" stroke-dasharray="18 18" opacity="0.35"/>
</svg>
